
#
# '/mnt/sdcard/Download/cds-data/video/video_01_avi-divx (05min).avi'
#
General
Count                                    : 284
Count of stream of this kind             : 1
Kind of stream                           : General
Kind of stream                           : General
Stream identifier                        : 0
Count of video streams                   : 1
Count of audio streams                   : 1
Video_Format_List                        : MPEG-4 Visual
Video_Format_WithHint_List               : MPEG-4 Visual (XviD)
Codecs Video                             : XviD
Audio_Format_List                        : PCM
Audio_Format_WithHint_List               : PCM
Audio codecs                             : PCM
Complete name                            : /mnt/sdcard/Download/cds-data/video/video_01_avi-divx (05min).avi
Folder name                              : /mnt/sdcard/Download/cds-data/video
File name                                : video_01_avi-divx (05min)
File extension                           : avi
Format                                   : AVI
Format                                   : AVI
Format/Info                              : Audio Video Interleave
Format/Extensions usually used           : avi
Commercial name                          : AVI
Internet media type                      : video/vnd.avi
Interleaved                              : Yes
Codec                                    : AVI
Codec                                    : AVI
Codec/Info                               : Audio Video Interleave
Codec/Extensions usually used            : avi
File size                                : 8032720
File size                                : 7.66 MiB
File size                                : 8 MiB
File size                                : 7.7 MiB
File size                                : 7.66 MiB
File size                                : 7.661 MiB
Duration                                 : 30000
Duration                                 : 30s 0ms
Duration                                 : 30s 0ms
Duration                                 : 30s 0ms
Duration                                 : 00:00:30.000
Overall bit rate                         : 2142059
Overall bit rate                         : 2 142 Kbps
Stream size                              : 46244
Stream size                              : 45.2 KiB (1%)
Stream size                              : 45 KiB
Stream size                              : 45 KiB
Stream size                              : 45.2 KiB
Stream size                              : 45.16 KiB
Stream size                              : 45.2 KiB (1%)
Proportion of this stream                : 0.00576
File last modification date              : UTC 2014-11-26 06:30:09
File last modification date (local)      : 2014-11-26 15:30:09
Writing library                          : VirtualDub build 32842/release
Writing library                          : VirtualDub build 32842/release

Video
Count                                    : 272
Count of stream of this kind             : 1
Kind of stream                           : Video
Kind of stream                           : Video
Stream identifier                        : 0
StreamOrder                              : 0
ID                                       : 0
ID                                       : 0
Format                                   : MPEG-4 Visual
Commercial name                          : MPEG-4 Visual
Format profile                           : Advanced Simple@L5
Format settings                          : BVOP2
Format settings, BVOP                    : 2
Format settings, BVOP                    : 2
Format settings, QPel                    : No
Format settings, QPel                    : No
Format settings, GMC                     : 0
Format settings, GMC                     : No warppoints
Format settings, Matrix                  : Default (H.263)
Format settings, Matrix                  : Default (H.263)
Internet media type                      : video/MP4V-ES
Muxing mode                              : Packed bitstream
Codec ID                                 : XVID
Codec ID/Hint                            : XviD
Codec ID/Url                             : http://mediaarea.net/XVID
Codec                                    : XVID
Codec                                    : XviD
Codec/Family                             : MPEG-4V
Codec/Info                               : XviD project
Codec/Url                                : http://www.xvid.org/Downloads.15.0.html
Codec/CC                                 : XVID
Codec profile                            : Advanced Simple@L5
Codec settings                           : BVOP / Packed Bitstream
Codec settings, Packet bitstream         : Yes
Codec settings, BVOP                     : Yes
Codec settings, QPel                     : No
Codec settings, GMC                      : 0
Codec settings, GMC                      : No warppoints
Codec settings, Matrix                   : Default (H.263)
Duration                                 : 30000
Duration                                 : 30s 0ms
Duration                                 : 30s 0ms
Duration                                 : 30s 0ms
Duration                                 : 00:00:30.000
Bit rate                                 : 593727
Bit rate                                 : 594 Kbps
Width                                    : 1368
Width                                    : 1 368 pixels
Height                                   : 768
Height                                   : 768 pixels
Pixel aspect ratio                       : 1.000
Display aspect ratio                     : 1.781
Display aspect ratio                     : 16:9
Frame rate                               : 25.000
Frame rate                               : 25.000 fps
Frame count                              : 750
Resolution                               : 8
Resolution                               : 8 bits
Colorimetry                              : 4:2:0
Color space                              : YUV
Chroma subsampling                       : 4:2:0
Bit depth                                : 8
Bit depth                                : 8 bits
Scan type                                : Progressive
Scan type                                : Progressive
Interlacement                            : PPF
Interlacement                            : Progressive
Compression mode                         : Lossy
Compression mode                         : Lossy
Bits/(Pixel*Frame)                       : 0.023
Delay                                    : 0
Delay                                    : 00:00:00.000
Stream size                              : 2226476
Stream size                              : 2.12 MiB (28%)
Stream size                              : 2 MiB
Stream size                              : 2.1 MiB
Stream size                              : 2.12 MiB
Stream size                              : 2.123 MiB
Stream size                              : 2.12 MiB (28%)
Proportion of this stream                : 0.27718
Writing library                          : XviD0064
Writing library                          : XviD 64
Writing library/Name                     : XviD
Writing library/Version                  : 64

Audio
Count                                    : 222
Count of stream of this kind             : 1
Kind of stream                           : Audio
Kind of stream                           : Audio
Stream identifier                        : 0
StreamOrder                              : 1
ID                                       : 1
ID                                       : 1
Format                                   : PCM
Commercial name                          : PCM
Format settings                          : Little / Signed
Format settings, Endianness              : Little
Format settings, Sign                    : Signed
Codec ID                                 : 1
Codec ID/Url                             : http://www.microsoft.com/windows/
Codec                                    : PCM
Codec                                    : PCM
Codec/Family                             : PCM
Codec/Info                               : Microsoft PCM
Codec/Url                                : http://www.microsoft.com/windows/
Codec/CC                                 : 1
Codec settings                           : Little / Signed
Codec settings, Endianness               : Little
Codec settings, Sign                     : Signed
Duration                                 : 30000
Duration                                 : 30s 0ms
Duration                                 : 30s 0ms
Duration                                 : 30s 0ms
Duration                                 : 00:00:30.000
Bit rate mode                            : CBR
Bit rate mode                            : Constant
Bit rate                                 : 1536000
Bit rate                                 : 1 536 Kbps
Channel(s)                               : 2
Channel(s)                               : 2 channels
Sampling rate                            : 48000
Sampling rate                            : 48.0 KHz
Samples count                            : 1440000
Resolution                               : 16
Resolution                               : 16 bits
Bit depth                                : 16
Bit depth                                : 16 bits
Delay                                    : 0
Delay                                    : 00:00:00.000
Delay, origin                            : Stream
Delay, origin                            : Raw stream
Delay relative to video                  : 0
Video0 delay                             : 0
Stream size                              : 5760000
Stream size                              : 5.49 MiB (72%)
Stream size                              : 5 MiB
Stream size                              : 5.5 MiB
Stream size                              : 5.49 MiB
Stream size                              : 5.493 MiB
Stream size                              : 5.49 MiB (72%)
Proportion of this stream                : 0.71707
Alignment                                : Aligned
Alignment                                : Aligned on interleaves
Interleave, duration                     : 1.01
Interleave, duration                     : 41
Interleave, duration                     : 41 ms (1.01 video frame)
Interleave, preload duration             : 500
Interleave, preload duration             : 500 ms

